<mxfile host="app.diagrams.net" modified="2023-10-08T13:31:13.454Z" agent="Mozilla/5.0 (Windows NT 10.0; Win64; x64) AppleWebKit/537.36 (KHTML, like Gecko) Chrome/117.0.0.0 Safari/537.36" etag="hTLLgvLVh4Shs9sPA9-_" version="21.6.9" type="github">
  <diagram name="Page-1" id="FmoPtNlkp1IxTzr8_TZK">
    <mxGraphModel dx="1909" dy="991" grid="1" gridSize="10" guides="1" tooltips="1" connect="1" arrows="1" fold="1" page="1" pageScale="1" pageWidth="850" pageHeight="1100" math="0" shadow="0">
      <root>
        <mxCell id="0" />
        <mxCell id="1" parent="0" />
        <mxCell id="aUM3otiBLoCD8vI0Q3bh-7" value="" style="edgeStyle=orthogonalEdgeStyle;rounded=0;orthogonalLoop=1;jettySize=auto;html=1;" edge="1" parent="1" source="aUM3otiBLoCD8vI0Q3bh-2" target="aUM3otiBLoCD8vI0Q3bh-3">
          <mxGeometry relative="1" as="geometry" />
        </mxCell>
        <mxCell id="aUM3otiBLoCD8vI0Q3bh-2" value="&lt;b&gt;USER&lt;/b&gt;" style="ellipse;whiteSpace=wrap;html=1;aspect=fixed;" vertex="1" parent="1">
          <mxGeometry x="70" y="210" width="80" height="80" as="geometry" />
        </mxCell>
        <mxCell id="aUM3otiBLoCD8vI0Q3bh-8" value="" style="edgeStyle=orthogonalEdgeStyle;rounded=0;orthogonalLoop=1;jettySize=auto;html=1;" edge="1" parent="1" source="aUM3otiBLoCD8vI0Q3bh-3" target="aUM3otiBLoCD8vI0Q3bh-4">
          <mxGeometry relative="1" as="geometry" />
        </mxCell>
        <mxCell id="aUM3otiBLoCD8vI0Q3bh-3" value="&lt;b&gt;Enter Email &amp;amp; Password&lt;/b&gt;" style="rounded=0;whiteSpace=wrap;html=1;" vertex="1" parent="1">
          <mxGeometry x="250" y="220" width="120" height="60" as="geometry" />
        </mxCell>
        <mxCell id="aUM3otiBLoCD8vI0Q3bh-9" value="" style="edgeStyle=orthogonalEdgeStyle;rounded=0;orthogonalLoop=1;jettySize=auto;html=1;" edge="1" parent="1" source="aUM3otiBLoCD8vI0Q3bh-4" target="aUM3otiBLoCD8vI0Q3bh-5">
          <mxGeometry relative="1" as="geometry" />
        </mxCell>
        <mxCell id="aUM3otiBLoCD8vI0Q3bh-4" value="&lt;b&gt;Validating in the database&lt;/b&gt;" style="shape=parallelogram;perimeter=parallelogramPerimeter;whiteSpace=wrap;html=1;fixedSize=1;" vertex="1" parent="1">
          <mxGeometry x="480" y="220" width="120" height="60" as="geometry" />
        </mxCell>
        <mxCell id="aUM3otiBLoCD8vI0Q3bh-10" value="" style="edgeStyle=orthogonalEdgeStyle;rounded=0;orthogonalLoop=1;jettySize=auto;html=1;" edge="1" parent="1" source="aUM3otiBLoCD8vI0Q3bh-5" target="aUM3otiBLoCD8vI0Q3bh-6">
          <mxGeometry relative="1" as="geometry" />
        </mxCell>
        <mxCell id="aUM3otiBLoCD8vI0Q3bh-11" style="edgeStyle=orthogonalEdgeStyle;rounded=0;orthogonalLoop=1;jettySize=auto;html=1;entryX=0.5;entryY=1;entryDx=0;entryDy=0;" edge="1" parent="1" source="aUM3otiBLoCD8vI0Q3bh-5" target="aUM3otiBLoCD8vI0Q3bh-3">
          <mxGeometry relative="1" as="geometry">
            <Array as="points">
              <mxPoint x="760" y="420" />
              <mxPoint x="310" y="420" />
            </Array>
          </mxGeometry>
        </mxCell>
        <mxCell id="aUM3otiBLoCD8vI0Q3bh-5" value="&lt;b&gt;If Validation Successful&lt;/b&gt;" style="rhombus;whiteSpace=wrap;html=1;" vertex="1" parent="1">
          <mxGeometry x="690" y="180" width="140" height="140" as="geometry" />
        </mxCell>
        <mxCell id="aUM3otiBLoCD8vI0Q3bh-6" value="&lt;b&gt;Login Successful&lt;/b&gt;" style="ellipse;whiteSpace=wrap;html=1;aspect=fixed;" vertex="1" parent="1">
          <mxGeometry x="940" y="210" width="80" height="80" as="geometry" />
        </mxCell>
        <mxCell id="aUM3otiBLoCD8vI0Q3bh-12" value="&lt;b&gt;TRUE&lt;/b&gt;" style="text;html=1;align=center;verticalAlign=middle;resizable=0;points=[];autosize=1;strokeColor=none;fillColor=none;" vertex="1" parent="1">
          <mxGeometry x="820" y="210" width="60" height="30" as="geometry" />
        </mxCell>
        <mxCell id="aUM3otiBLoCD8vI0Q3bh-13" value="&lt;b&gt;FALSE&lt;/b&gt;" style="text;html=1;align=center;verticalAlign=middle;resizable=0;points=[];autosize=1;strokeColor=none;fillColor=none;" vertex="1" parent="1">
          <mxGeometry x="770" y="320" width="60" height="30" as="geometry" />
        </mxCell>
      </root>
    </mxGraphModel>
  </diagram>
</mxfile>
